<?xml version="1.0" standalone="no"?>
<!DOCTYPE svg PUBLIC "-//W3C//DTD SVG 20010904//EN"
 "http://www.w3.org/TR/2001/REC-SVG-20010904/DTD/svg10.dtd">
<svg version="1.0" xmlns="http://www.w3.org/2000/svg"
 width="512.000000pt" height="512.000000pt" viewBox="0 0 512.000000 512.000000"
 preserveAspectRatio="xMidYMid meet">

<g transform="translate(0.000000,512.000000) scale(0.100000,-0.100000)"
fill="#000000" stroke="none">
<path d="M2315 5109 c-800 -83 -1501 -518 -1927 -1196 -604 -961 -490 -2237
274 -3068 425 -462 951 -737 1583 -827 119 -17 512 -16 635 1 622 86 1148 360
1572 820 349 378 572 861 650 1406 17 118 17 512 0 630 -59 416 -191 769 -410
1099 -92 140 -185 254 -315 385 -399 404 -893 653 -1462 737 -123 18 -478 26
-600 13z m732 -1469 c82 -50 102 -170 40 -239 -12 -13 -230 -206 -484 -428
-255 -223 -463 -409 -463 -413 0 -4 208 -190 463 -413 254 -222 472 -415 484
-428 62 -69 42 -189 -40 -239 -42 -26 -121 -26 -162 -1 -52 32 -1119 971
-1139 1002 -11 19 -18 48 -18 79 0 31 7 60 18 79 20 31 1087 970 1139 1002 41
25 120 25 162 -1z"/>
</g>
</svg>
