<svg version="1.1" xmlns="http://www.w3.org/2000/svg" xmlns:xlink="http://www.w3.org/1999/xlink" width="512.000000pt" height="512.000000pt" viewBox="0,0,256,256"><g fill="#ffffff" fill-rule="nonzero" stroke="none" stroke-width="1" stroke-linecap="butt" stroke-linejoin="miter" stroke-miterlimit="10" stroke-dasharray="" stroke-dashoffset="0" font-family="none" font-weight="none" font-size="none" text-anchor="none" style="mix-blend-mode: normal"><g transform="translate(-0.01558,0.03582) scale(0.5,0.5)"><g transform="translate(0,512) scale(0.1,-0.1)"><path d="M3586,5106c-21,-8 -54,-27 -73,-43c-19,-15 -199,-256 -401,-535c-326,-450 -518,-696 -1727,-2223c-748,-944 -1366,-1729 -1374,-1744c-7,-16 -11,-40 -8,-53c8,-30 437,-478 476,-497c26,-12 46,-11 173,12c172,32 178,36 198,153c7,44 16,82 20,87c3,4 39,1 79,-8c40,-8 83,-15 97,-15c45,0 70,38 88,135c9,48 17,89 19,91c1,1 31,-4 67,-11c147,-32 171,-17 197,118c19,99 14,96 117,72c114,-27 139,-8 165,119c9,47 19,88 22,91c3,3 42,-2 87,-11c68,-14 86,-15 112,-4c39,16 45,28 64,130c9,46 17,85 19,86c1,1 31,-4 67,-11c145,-31 173,-15 197,119l16,88l41,-6c184,-29 198,-23 224,106c10,48 21,90 24,93c4,4 43,-1 89,-10c123,-25 148,-7 174,130c9,43 17,80 19,82c2,2 35,-3 75,-12c96,-20 115,-19 146,7c20,18 29,41 40,103c21,112 14,105 87,89c146,-31 171,-18 196,108c10,48 21,90 25,94c4,4 45,-1 92,-11c78,-16 87,-16 110,-1c33,22 44,44 61,133c8,42 16,78 18,81c2,2 40,-4 84,-14c130,-28 154,-11 181,129c9,45 21,81 26,80c6,0 44,-7 85,-14c127,-21 149,-4 171,131c7,40 18,74 25,77c7,2 43,-1 81,-9c37,-7 79,-12 93,-10c25,3 201,134 228,169c28,37 14,76 -63,185l-75,106l264,371c180,252 271,388 286,428c63,168 20,356 -109,476c-49,45 -133,92 -550,307c-520,267 -497,253 -584,370c-60,82 -173,119 -261,86zM3691,4940c4,0 24,-24 42,-52c72,-111 63,-105 781,-473c170,-87 327,-174 347,-192c89,-80 111,-219 54,-324c-16,-31 -140,-209 -275,-397l-245,-342h-427h-426l-49,63c-27,34 -167,217 -310,407l-260,346l343,474c189,261 353,481 366,487c13,7 29,11 36,8c8,-3 18,-5 23,-5zM3120,3430c156,-206 297,-390 313,-407l31,-33h461h461l52,-74l52,-75l-37,-31c-24,-19 -45,-29 -58,-26c-11,3 -61,13 -112,22c-138,26 -156,12 -184,-144c-8,-48 -16,-71 -24,-68c-33,12 -164,28 -188,22c-34,-8 -51,-42 -68,-134c-7,-41 -18,-76 -25,-79c-7,-2 -47,3 -89,12c-117,26 -141,8 -169,-129c-9,-44 -18,-81 -19,-83c-2,-2 -40,4 -85,13c-44,9 -92,14 -107,10c-37,-9 -59,-53 -74,-146c-9,-56 -17,-80 -26,-76c-33,12 -164,28 -188,22c-34,-8 -47,-33 -67,-131c-18,-91 -3,-84 -151,-70c-73,7 -76,7 -96,-18c-11,-14 -27,-62 -36,-108c-9,-45 -19,-84 -21,-86c-2,-3 -42,3 -88,12c-131,26 -152,10 -178,-142c-7,-40 -16,-73 -19,-73c-3,1 -35,7 -71,15c-95,21 -118,19 -149,-12c-22,-22 -30,-45 -41,-108c-7,-44 -14,-83 -16,-86c-2,-4 -32,-1 -66,7c-147,31 -175,15 -201,-115c-9,-46 -19,-86 -22,-89c-2,-3 -43,3 -89,12c-131,26 -148,12 -177,-144c-7,-36 -13,-66 -14,-68c-1,-1 -34,4 -74,13c-100,21 -118,19 -150,-13c-22,-21 -30,-44 -41,-107c-7,-44 -14,-83 -16,-86c-2,-4 -32,-1 -66,7c-146,31 -178,13 -199,-110c-7,-42 -16,-81 -20,-88c-5,-8 -29,-7 -93,6c-125,25 -147,8 -175,-138c-10,-53 -20,-99 -23,-102c-3,-3 -34,-10 -69,-15l-64,-11l-147,149c-80,81 -157,162 -171,179l-26,30l1006,1270c553,698 1140,1439 1305,1647c246,311 303,376 313,365c7,-7 140,-182 295,-388z"></path><path d="M3625,4420c-109,-42 -178,-145 -183,-275c-4,-75 -2,-84 30,-145c23,-44 48,-76 78,-98c71,-52 560,-310 613,-323c27,-6 68,-8 95,-4c252,36 347,356 156,524c-55,48 -520,302 -598,326c-66,20 -130,18 -191,-5zM4025,4130c138,-73 262,-144 277,-158c77,-71 48,-193 -53,-224c-46,-13 -33,-19 -398,177c-225,121 -241,135 -241,217c0,50 32,101 74,119c44,19 96,-1 341,-131z"></path><path d="M2521,3138c-29,-39 -50,-73 -44,-77c5,-3 34,-25 64,-48c31,-24 58,-43 61,-43c6,0 108,126 108,133c0,4 -109,90 -125,99c-5,3 -34,-26 -64,-64z"></path><path d="M2059,2537c-166,-215 -318,-411 -336,-433l-34,-42l65,-51c35,-28 66,-51 69,-51c3,0 142,177 308,393c167,215 318,410 336,433l33,41l-58,45c-31,24 -62,47 -68,51c-7,4 -129,-145 -315,-386z"></path><path d="M430,595v-85h85h85v85v85h-85h-85z"></path></g></g></g></svg>