<?xml version="1.0" encoding="UTF-8"?> <svg xmlns="http://www.w3.org/2000/svg" width="194" height="158" viewBox="0 0 194 158" fill="none"><path d="M5 149.51H10.45V150.58H6.28V152.3H8.35C9.02936 152.253 9.70453 152.438 10.265 152.825C10.4853 153.008 10.6594 153.241 10.7732 153.504C10.887 153.768 10.9373 154.054 10.92 154.34C10.9357 154.645 10.8785 154.949 10.7533 155.227C10.6281 155.505 10.4384 155.75 10.2 155.94C9.59981 156.354 8.87789 156.555 8.14999 156.51H5V149.51ZM8.07999 155.51C8.48115 155.537 8.88046 155.435 9.21999 155.22C9.34908 155.123 9.45221 154.995 9.52024 154.849C9.58827 154.702 9.6191 154.541 9.61 154.38C9.61 153.66 9.09999 153.3 8.07999 153.3H6.28V155.51H8.07999ZM18.13 154.89H14.63L13.94 156.51H12.6L15.75 149.51H17.03L20.19 156.51H18.83L18.13 154.89ZM17.7 153.87L16.38 150.81L15.07 153.87H17.7ZM28.68 149.51V156.51H27.38V153.51H23.76V156.51H22.46V149.51H23.76V152.4H27.38V149.51H28.68ZM38.06 149.51V156.51H36.76V153.51H33.14V156.51H31.84V149.51H33.14V152.4H36.76V149.51H38.06ZM44.45 151.88C45.1414 151.834 45.8268 152.034 46.385 152.445C46.6173 152.655 46.7989 152.914 46.9158 153.205C47.0328 153.495 47.0821 153.808 47.06 154.12C47.0808 154.453 47.0249 154.786 46.8966 155.094C46.7683 155.401 46.571 155.676 46.32 155.895C45.7207 156.339 44.9841 156.556 44.24 156.51H41.23V149.51H42.51V151.88H44.45ZM44.18 155.51C44.5994 155.538 45.0146 155.413 45.35 155.16C45.4906 155.032 45.6004 154.873 45.6714 154.697C45.7424 154.52 45.7727 154.33 45.76 154.14C45.76 153.293 45.2333 152.87 44.18 152.87H42.51V155.51H44.18ZM48.07 149.51H49.35V156.51H48.07V149.51ZM52.53 149.51H53.81V154.48L57.57 149.51H58.78V156.51H57.5V151.55L53.74 156.51H52.53V149.51ZM55.64 149.04C55.1593 149.075 54.6812 148.944 54.285 148.67C54.1303 148.537 54.008 148.371 53.9274 148.184C53.8468 147.997 53.8101 147.794 53.82 147.59H54.73C54.7267 147.697 54.7465 147.803 54.7879 147.901C54.8293 148 54.8914 148.088 54.97 148.16C55.1617 148.306 55.3998 148.377 55.64 148.36C55.8814 148.374 56.1202 148.303 56.315 148.16C56.3975 148.09 56.4633 148.003 56.5074 147.904C56.5515 147.805 56.5729 147.698 56.57 147.59H57.47C57.4787 147.794 57.4404 147.997 57.358 148.183C57.2756 148.369 57.1514 148.534 56.995 148.665C56.5992 148.941 56.1212 149.073 55.64 149.04ZM68.48 153.56H67.18V156.51H65.9V149.51H67.18V152.44H68.52L70.53 149.51H71.91L69.52 152.9L72 156.51H70.53L68.48 153.56ZM77.31 156.61C76.6378 156.62 75.9739 156.46 75.38 156.145C74.8198 155.848 74.3526 155.401 74.03 154.855C73.701 154.296 73.5315 153.658 73.54 153.01C73.5315 152.362 73.701 151.724 74.03 151.165C74.3526 150.619 74.8198 150.172 75.38 149.875C75.9739 149.56 76.6378 149.4 77.31 149.41C77.9822 149.4 78.6461 149.56 79.24 149.875C79.7992 150.172 80.2662 150.616 80.59 151.16C80.9202 151.72 81.0898 152.36 81.08 153.01C81.0898 153.66 80.9202 154.3 80.59 154.86C80.2662 155.404 79.7992 155.848 79.24 156.145C78.6461 156.46 77.9822 156.62 77.31 156.61ZM77.31 155.47C77.7503 155.477 78.1847 155.368 78.57 155.155C78.9393 154.949 79.244 154.644 79.45 154.275C79.6658 153.889 79.7762 153.452 79.77 153.01C79.7762 152.568 79.6658 152.131 79.45 151.745C79.244 151.376 78.9393 151.071 78.57 150.865C78.1847 150.652 77.7503 150.543 77.31 150.55C76.8697 150.543 76.4353 150.652 76.05 150.865C75.6807 151.071 75.376 151.376 75.17 151.745C74.9542 152.131 74.8438 152.568 74.85 153.01C74.8438 153.452 74.9542 153.889 75.17 154.275C75.376 154.644 75.6807 154.949 76.05 155.155C76.4353 155.368 76.8697 155.477 77.31 155.47ZM90.15 156.51L90.14 151.87L87.84 155.71H87.26L84.96 151.93V156.51H83.73V149.51H84.8L87.57 154.14L90.31 149.51H91.37L91.39 156.51H90.15ZM100.75 149.51V156.51H99.47V150.61H95.84V156.51H94.56V149.51H100.75ZM109.83 149.51V156.51H108.55V150.61H105.79L105.73 152.36C105.716 153.16 105.635 153.958 105.49 154.745C105.41 155.253 105.199 155.732 104.88 156.135C104.734 156.295 104.554 156.42 104.353 156.503C104.153 156.585 103.936 156.621 103.72 156.61C103.481 156.601 103.243 156.568 103.01 156.51L103.1 155.38C103.197 155.408 103.299 155.422 103.4 155.42C103.605 155.415 103.802 155.34 103.959 155.209C104.116 155.077 104.224 154.896 104.265 154.695C104.474 153.951 104.58 153.182 104.58 152.41L104.68 149.51H109.83ZM118.25 155.42V156.51H113V149.51H118.11V150.6H114.3V152.42H117.68V153.49H114.3V155.42H118.25ZM123.48 153.56H122.18V156.51H120.9V149.51H122.18V152.44H123.52L125.53 149.51H126.91L124.52 152.9L127 156.51H125.53L123.48 153.56ZM132.29 156.61C131.623 156.62 130.964 156.46 130.375 156.145C129.817 155.849 129.351 155.404 129.03 154.86C128.705 154.299 128.539 153.659 128.55 153.01C128.54 152.36 128.71 151.72 129.04 151.16C129.363 150.617 129.828 150.173 130.385 149.875C130.974 149.56 131.633 149.4 132.3 149.41C132.838 149.403 133.372 149.505 133.87 149.71C134.333 149.902 134.744 150.2 135.07 150.58L134.23 151.37C133.996 151.107 133.707 150.897 133.384 150.756C133.062 150.614 132.712 150.544 132.36 150.55C131.91 150.543 131.466 150.651 131.07 150.865C130.697 151.068 130.389 151.371 130.18 151.74C129.963 152.128 129.853 152.566 129.86 153.01C129.853 153.454 129.963 153.892 130.18 154.28C130.389 154.649 130.697 154.952 131.07 155.155C131.466 155.369 131.91 155.477 132.36 155.47C132.713 155.476 133.063 155.404 133.386 155.261C133.709 155.118 133.997 154.906 134.23 154.64L135.07 155.44C134.744 155.82 134.333 156.118 133.87 156.31C133.369 156.515 132.831 156.617 132.29 156.61ZM147.45 149.51L144.41 155.16C144.189 155.607 143.861 155.994 143.455 156.285C143.102 156.529 142.684 156.66 142.255 156.66C141.9 156.658 141.55 156.583 141.225 156.44L141.545 155.42C141.764 155.497 141.993 155.541 142.225 155.55C142.441 155.545 142.651 155.481 142.834 155.367C143.017 155.253 143.166 155.091 143.265 154.9L143.375 154.73L140.58 149.51H141.97L144.04 153.62L146.17 149.51H147.45ZM158.27 152.87C158.667 152.96 159.025 153.175 159.29 153.485C159.53 153.795 159.654 154.179 159.64 154.57C159.653 154.846 159.597 155.121 159.479 155.37C159.36 155.619 159.182 155.836 158.96 156C158.375 156.377 157.684 156.556 156.99 156.51H153.67V149.51H156.8C157.447 149.472 158.09 149.637 158.64 149.98C158.853 150.128 159.026 150.327 159.141 150.56C159.257 150.793 159.311 151.051 159.3 151.31C159.309 151.646 159.216 151.977 159.035 152.26C158.847 152.536 158.581 152.748 158.27 152.87ZM154.95 152.5H156.69C157.029 152.523 157.365 152.435 157.65 152.25C157.761 152.163 157.849 152.05 157.906 151.921C157.964 151.792 157.989 151.651 157.98 151.51C157.989 151.368 157.963 151.227 157.906 151.097C157.849 150.968 157.761 150.854 157.65 150.765C157.367 150.577 157.029 150.487 156.69 150.51H154.95V152.5ZM156.95 155.51C157.87 155.51 158.33 155.163 158.33 154.47C158.33 153.79 157.87 153.45 156.95 153.45H154.95V155.51H156.95ZM165.56 156.61C164.888 156.62 164.224 156.46 163.63 156.145C163.07 155.848 162.603 155.401 162.28 154.855C161.951 154.296 161.782 153.658 161.79 153.01C161.782 152.362 161.951 151.724 162.28 151.165C162.603 150.619 163.07 150.172 163.63 149.875C164.224 149.56 164.888 149.4 165.56 149.41C166.232 149.4 166.896 149.56 167.49 149.875C168.049 150.172 168.516 150.616 168.84 151.16C169.17 151.72 169.34 152.36 169.33 153.01C169.34 153.66 169.17 154.3 168.84 154.86C168.516 155.404 168.049 155.848 167.49 156.145C166.896 156.46 166.232 156.62 165.56 156.61ZM165.56 155.47C166 155.477 166.435 155.368 166.82 155.155C167.189 154.949 167.494 154.644 167.7 154.275C167.916 153.889 168.026 153.452 168.02 153.01C168.026 152.568 167.916 152.131 167.7 151.745C167.494 151.376 167.189 151.071 166.82 150.865C166.435 150.652 166 150.543 165.56 150.55C165.12 150.543 164.685 150.652 164.3 150.865C163.931 151.071 163.626 151.376 163.42 151.745C163.204 152.131 163.094 152.568 163.1 153.01C163.094 153.452 163.204 153.889 163.42 154.275C163.626 154.644 163.931 154.949 164.3 155.155C164.685 155.368 165.12 155.477 165.56 155.47ZM178.71 155.41V158H177.51V156.51H172.14V158H170.93L170.94 155.41H171.24C171.68 155.39 171.988 155.065 172.165 154.435C172.374 153.55 172.483 152.644 172.49 151.735L172.57 149.51H177.7V155.41H178.71ZM173.63 151.85C173.612 152.609 173.538 153.366 173.41 154.115C173.354 154.588 173.167 155.037 172.87 155.41H176.42V150.61H173.68L173.63 151.85ZM184.36 151.88C185.051 151.834 185.737 152.034 186.295 152.445C186.527 152.655 186.709 152.914 186.826 153.205C186.943 153.495 186.992 153.808 186.97 154.12C186.991 154.453 186.935 154.786 186.807 155.094C186.678 155.401 186.481 155.676 186.23 155.895C185.631 156.339 184.894 156.556 184.15 156.51H181.14V149.51H182.42V151.88H184.36ZM184.09 155.51C184.509 155.538 184.925 155.413 185.26 155.16C185.401 155.032 185.51 154.873 185.581 154.697C185.652 154.52 185.683 154.33 185.67 154.14C185.67 153.293 185.143 152.87 184.09 152.87H182.42V155.51H184.09ZM187.98 149.51H189.26V156.51H187.98V149.51Z" fill="black"></path><path d="M0 101.59V98.59H67.733C66.4706 98.202 65.3656 97.4198 64.5803 96.358C63.7949 95.2962 63.3704 94.0106 63.369 92.6899C63.3687 91.7415 63.5874 90.8059 64.0082 89.9559C64.4291 89.106 65.0405 88.3648 65.795 87.79C65.0402 87.2155 64.4283 86.4743 64.0071 85.6244C63.5859 84.7744 63.3667 83.8386 63.3667 82.89C63.3667 81.9414 63.5859 81.0056 64.0071 80.1556C64.4283 79.3057 65.0402 78.5645 65.795 77.99C65.0402 77.4154 64.4283 76.6743 64.0071 75.8243C63.5859 74.9744 63.3667 74.0386 63.3667 73.09C63.3667 72.1414 63.5859 71.2057 64.0071 70.3557C64.4283 69.5058 65.0402 68.7645 65.795 68.1899C65.149 67.6965 64.6069 67.0803 64.1998 66.3767C63.7927 65.6731 63.5287 64.8959 63.423 64.09L60.223 67.29L54 61.094L96.715 18.3781L139.437 61.099L133.218 67.317L130.007 64.1071C129.901 64.9131 129.637 65.6902 129.23 66.3938C128.823 67.0974 128.281 67.7137 127.635 68.207C128.39 68.7816 129.002 69.5227 129.423 70.3727C129.844 71.2226 130.063 72.1585 130.063 73.1071C130.063 74.0557 129.844 74.9913 129.423 75.8413C129.002 76.6913 128.39 77.4324 127.635 78.007C128.39 78.5815 129.002 79.3226 129.423 80.1726C129.844 81.0226 130.063 81.9584 130.063 82.907C130.063 83.8556 129.844 84.7914 129.423 85.6414C129.002 86.4913 128.39 87.2325 127.635 87.807C128.389 88.3817 129.001 89.1229 129.422 89.9729C129.843 90.8229 130.061 91.7586 130.061 92.707C130.06 94.0276 129.635 95.313 128.85 96.3748C128.065 97.4365 126.96 98.2189 125.698 98.6071H194V101.607L0 101.59ZM122.09 98.59C120.828 98.202 119.723 97.4197 118.938 96.3579C118.152 95.2961 117.728 94.0106 117.727 92.6899C117.726 91.626 118.001 90.5801 118.527 89.655H74.9C75.4254 90.5802 75.701 91.626 75.7 92.6899C75.6989 94.0104 75.2748 95.2959 74.4897 96.3577C73.7047 97.4195 72.6001 98.2018 71.338 98.59H122.09ZM120.265 92.6899C120.266 93.6521 120.649 94.5745 121.329 95.2549C122.009 95.9352 122.932 96.3179 123.894 96.319C124.856 96.3179 125.779 95.9352 126.459 95.2549C127.139 94.5745 127.522 93.6521 127.523 92.6899C127.522 91.7277 127.14 90.8052 126.459 90.1248C125.779 89.4444 124.856 89.0618 123.894 89.061C122.931 89.0621 122.008 89.4451 121.328 90.1261C120.648 90.8071 120.265 91.7303 120.265 92.693V92.6899ZM65.907 92.6899C65.9081 93.6523 66.2909 94.5749 66.9714 95.2552C67.652 95.9356 68.5747 96.3182 69.537 96.319C70.4991 96.3179 71.4216 95.9352 72.1019 95.2549C72.7823 94.5745 73.1649 93.6521 73.166 92.6899C73.1649 91.7278 72.7823 90.8055 72.1019 90.1251C71.4216 89.4448 70.4991 89.0621 69.537 89.061C68.5742 89.0618 67.651 89.4447 66.9704 90.1257C66.2897 90.8067 65.9073 91.7302 65.907 92.693V92.6899ZM74.023 87.118H119.407C118.419 86.0734 117.829 84.7156 117.739 83.2809C117.649 81.8461 118.064 80.4252 118.913 79.265H111.494V76.7271H118.913C118.142 75.6738 117.727 74.4026 117.727 73.0975C117.727 71.7924 118.142 70.5212 118.913 69.468H111.494V66.931H118.913C118.143 65.8779 117.727 64.6069 117.727 63.302C117.727 61.9971 118.143 60.7261 118.913 59.673H74.513C75.2833 60.7262 75.6986 61.9972 75.6986 63.302C75.6986 64.6068 75.2833 65.8779 74.513 66.931H81.932V69.468H74.517C75.2876 70.5213 75.7029 71.7925 75.7029 73.0975C75.7029 74.4026 75.2876 75.6738 74.517 76.7271H81.935V79.265H74.517C75.3667 80.4254 75.7827 81.8471 75.6924 83.2825C75.6021 84.7179 75.0114 86.0762 74.023 87.121V87.118ZM120.265 82.894C120.266 83.8563 120.649 84.7787 121.329 85.4592C122.009 86.1397 122.932 86.5227 123.894 86.524C124.856 86.523 125.779 86.1402 126.459 85.4596C127.14 84.779 127.522 83.8564 127.523 82.894C127.522 81.9319 127.139 81.0094 126.459 80.3291C125.779 79.6488 124.856 79.2661 123.894 79.265C122.931 79.2661 122.008 79.6492 121.328 80.3302C120.648 81.0112 120.265 81.9343 120.265 82.897V82.894ZM65.907 82.894C65.9081 83.8565 66.2908 84.7791 66.9714 85.4596C67.6519 86.1401 68.5746 86.523 69.537 86.524C70.4992 86.5227 71.4217 86.1397 72.102 85.4592C72.7823 84.7787 73.1649 83.8563 73.166 82.894C73.1649 81.9319 72.7823 81.0094 72.1019 80.3291C71.4216 79.6488 70.4991 79.2661 69.537 79.265C68.5742 79.2658 67.651 79.6488 66.9704 80.3298C66.2897 81.0109 65.9073 81.9341 65.907 82.897V82.894ZM120.265 73.094C120.266 74.0561 120.649 74.9786 121.329 75.6589C122.009 76.3393 122.932 76.722 123.894 76.723C124.856 76.722 125.779 76.3393 126.459 75.6589C127.139 74.9786 127.522 74.0561 127.523 73.094C127.522 72.1317 127.14 71.209 126.459 70.5284C125.779 69.8479 124.856 69.465 123.894 69.464C123.417 69.4645 122.944 69.5591 122.504 69.7422C122.063 69.9253 121.663 70.1934 121.326 70.5312C120.989 70.8691 120.722 71.27 120.54 71.7111C120.358 72.1522 120.264 72.6249 120.265 73.1021V73.094ZM65.907 73.094C65.9081 74.0563 66.2909 74.9789 66.9714 75.6593C67.652 76.3397 68.5747 76.7222 69.537 76.723C70.4991 76.722 71.4216 76.3393 72.1019 75.6589C72.7823 74.9786 73.1649 74.0561 73.166 73.094C73.1652 72.1317 72.7826 71.209 72.1023 70.5284C71.4219 69.8479 70.4993 69.465 69.537 69.464C69.0598 69.4645 68.5873 69.5591 68.1466 69.7422C67.7059 69.9253 67.3056 70.1934 66.9685 70.5312C66.6315 70.8691 66.3642 71.27 66.1821 71.7111C66 72.1522 65.9065 72.6248 65.907 73.1021V73.094ZM120.265 63.2939C120.266 64.2563 120.648 65.1791 121.329 65.8596C122.009 66.5402 122.932 66.9229 123.894 66.924C124.856 66.9229 125.779 66.5402 126.459 65.8596C127.14 65.1791 127.522 64.2563 127.523 63.2939C127.522 62.3318 127.139 61.4095 126.459 60.7291C125.779 60.0488 124.856 59.6661 123.894 59.665C123.417 59.6657 122.944 59.7603 122.503 59.9436C122.063 60.1269 121.662 60.3953 121.325 60.7333C120.988 61.0713 120.721 61.4724 120.539 61.9137C120.357 62.355 120.264 62.8277 120.265 63.3051V63.2939ZM65.907 63.2939C65.9081 64.2564 66.2908 65.1791 66.9714 65.8596C67.6519 66.5401 68.5746 66.9229 69.537 66.924C70.4993 66.9229 71.4219 66.5402 72.1023 65.8596C72.7826 65.1791 73.1652 64.2563 73.166 63.2939C73.1647 62.3319 72.7819 61.4097 72.1016 60.7294C71.4213 60.0491 70.4991 59.6664 69.537 59.665C69.0596 59.6656 68.587 59.7601 68.1462 59.9434C67.7053 60.1266 67.3049 60.3949 66.9678 60.7329C66.6307 61.0709 66.3635 61.4721 66.1815 61.9135C65.9995 62.3548 65.9062 62.8277 65.907 63.3051V63.2939ZM133.218 63.719L135.848 61.088L96.715 21.955L57.589 61.083L60.219 63.712L96.719 27.212L133.218 63.719ZM70.391 57.1281H123.04L115.44 49.528H77.988L70.391 57.1281ZM80.526 46.995H112.906L105.986 40.074H87.445L80.526 46.995ZM89.982 37.537H103.449L96.716 30.804L89.982 37.537ZM85.234 84.572V61.609H108.2V84.572H85.234ZM97.984 82.035H105.658V74.36H97.984V82.035ZM87.771 82.035H95.447V74.36H87.771V82.035ZM97.984 71.822H105.659V64.147H97.984V71.822ZM87.77 71.822H95.446V64.147H87.77V71.822ZM122.98 41.115V21.0341H112.927V28.526H110.39V21.0341H107.683V12.25H128.208V21.045H125.517V41.126L122.98 41.115ZM110.221 18.4969H125.67V14.776H110.22L110.221 18.4969Z" fill="#432B09"></path><path d="M113.769 7.92201L114.999 9.15201L116.746 7.40501L115.516 6.17501C115.419 6.07755 115.364 5.94558 115.364 5.80801C115.364 5.67044 115.419 5.53847 115.516 5.44101C116.071 4.88214 116.384 4.12738 116.387 3.33969C116.391 2.55201 116.084 1.7946 115.534 1.23101L114.325 0.00100708L112.563 1.73301L113.772 2.96301C113.868 3.06047 113.922 3.19175 113.922 3.32851C113.922 3.46527 113.868 3.59655 113.772 3.69401C113.212 4.25515 112.897 5.01563 112.897 5.80851C112.897 6.60138 113.212 7.36186 113.772 7.92301L113.769 7.92201Z" fill="#777463"></path><path d="M119.946 7.92201L121.176 9.15201L122.923 7.40501L121.693 6.17501C121.596 6.07755 121.541 5.94558 121.541 5.80801C121.541 5.67044 121.596 5.53847 121.693 5.44101C122.248 4.88214 122.561 4.12738 122.564 3.33969C122.568 2.55201 122.261 1.7946 121.711 1.23101L120.502 0.00100708L118.74 1.73301L119.949 2.96301C120.045 3.06047 120.099 3.19175 120.099 3.32851C120.099 3.46527 120.045 3.59655 119.949 3.69401C119.389 4.25471 119.074 5.01476 119.073 5.80739C119.073 6.60002 119.387 7.36051 119.946 7.92201Z" fill="#777463"></path><path d="M100.32 135.95V134.15C100.997 134.161 101.661 133.961 102.22 133.578C102.637 133.194 102.9 132.672 102.96 132.108C103.078 131.283 103.132 130.45 103.12 129.617V112.633C103.12 112.033 103.133 111.455 103.16 110.898C103.187 110.341 103.213 109.858 103.24 109.448C102.787 109.475 102.293 109.503 101.76 109.53C101.227 109.557 100.747 109.585 100.32 109.612V107.366H126.92V109.166C126.25 109.136 125.588 109.33 125.04 109.717C124.618 110.099 124.348 110.621 124.28 111.187C124.16 112.018 124.107 112.858 124.12 113.698V130.478C124.12 131.211 124.113 131.871 124.1 132.458C124.095 132.929 124.062 133.4 124 133.867C124.453 133.812 124.953 133.779 125.5 133.767C126.047 133.755 126.52 133.735 126.92 133.706V135.95H117.08V134.15C117.757 134.161 118.421 133.961 118.98 133.578C119.397 133.194 119.66 132.672 119.72 132.108C119.838 131.284 119.892 130.453 119.88 129.621V109.45L110.12 109.613C109.537 109.607 108.961 109.74 108.44 110.001C108.035 110.239 107.74 110.628 107.62 111.083C107.454 111.709 107.367 112.354 107.36 113.002V130.478C107.36 131.211 107.353 131.871 107.34 132.458C107.335 132.929 107.302 133.4 107.24 133.867C107.693 133.812 108.193 133.779 108.74 133.767C109.287 133.755 109.76 133.735 110.16 133.706V135.95H100.32ZM132.92 135.95V134.112C133.255 134.134 133.591 134.088 133.908 133.976C134.224 133.864 134.514 133.688 134.76 133.459C135.235 132.945 135.602 132.341 135.84 131.683C136.133 130.934 136.453 130.097 136.8 129.172L144.88 106.59H146.48L155.24 129.498C155.453 130.015 155.693 130.715 155.96 131.598C156.203 132.328 156.325 133.094 156.32 133.864C156.773 133.809 157.22 133.776 157.66 133.764C158.1 133.752 158.52 133.732 158.92 133.703V135.95H149.2V134.15C149.537 134.183 149.878 134.144 150.199 134.035C150.519 133.926 150.813 133.749 151.06 133.517C151.214 133.312 151.326 133.078 151.388 132.829C151.45 132.58 151.461 132.32 151.42 132.067C151.35 131.48 151.209 130.905 151 130.352L149.8 127.05L140 127.295L138.84 130.85C138.68 131.395 138.507 131.912 138.32 132.402C138.133 132.892 137.947 133.368 137.76 133.831C138.24 133.776 138.753 133.743 139.3 133.731C139.847 133.719 140.333 133.699 140.76 133.67V135.95H132.92ZM140.72 125.088H149.12L146.6 118.188C146.28 117.289 145.973 116.398 145.68 115.513C145.387 114.628 145.12 113.777 144.88 112.96H144.84C144.627 113.641 144.387 114.389 144.12 115.206C143.853 116.023 143.547 116.907 143.2 117.86L140.72 125.088ZM164.76 134.15C165.437 134.161 166.101 133.961 166.66 133.578C167.077 133.194 167.34 132.672 167.4 132.108C167.518 131.283 167.572 130.45 167.56 129.617V112.633C167.56 112.033 167.573 111.455 167.6 110.898C167.627 110.341 167.653 109.858 167.68 109.448C167.227 109.475 166.733 109.503 166.2 109.53C165.667 109.557 165.187 109.585 164.76 109.612V107.366C166.333 107.339 167.933 107.318 169.56 107.305C171.187 107.292 172.84 107.285 174.52 107.285C176.683 107.233 178.839 107.544 180.9 108.204C182.492 108.709 183.898 109.676 184.94 110.981C185.925 112.338 186.438 113.981 186.4 115.657C186.417 116.778 186.227 117.892 185.84 118.944C185.403 120.131 184.706 121.205 183.8 122.088C182.688 123.147 181.357 123.949 179.9 124.436C177.907 125.09 175.816 125.394 173.72 125.336C173.421 125.365 173.121 125.378 172.82 125.377C172.487 125.377 172.147 125.363 171.8 125.336V130.481C171.8 131.214 171.793 131.874 171.78 132.461C171.775 132.932 171.742 133.403 171.68 133.87C172.053 133.843 172.453 133.815 172.88 133.788C173.307 133.761 173.727 133.74 174.14 133.727C174.553 133.714 174.933 133.693 175.28 133.666V135.95H164.76V134.15ZM171.8 123.166C172.253 123.221 172.647 123.254 172.98 123.266C173.313 123.278 173.707 123.285 174.16 123.286C175.529 123.313 176.885 123.019 178.12 122.428C179.24 121.881 180.173 121.014 180.8 119.937C181.464 118.754 181.796 117.414 181.76 116.058C181.794 114.934 181.596 113.815 181.18 112.771C180.841 111.947 180.289 111.228 179.58 110.688C178.88 110.175 178.084 109.807 177.24 109.606C176.323 109.384 175.383 109.274 174.44 109.279C173.814 109.227 173.189 109.401 172.68 109.769C172.28 110.146 172.025 110.652 171.96 111.198C171.841 111.995 171.788 112.801 171.8 113.607V123.166Z" fill="#777463"></path><path d="M7 134.141C7.67723 134.152 8.34123 133.953 8.9 133.57C9.3169 133.186 9.57991 132.664 9.64 132.1C9.75839 131.275 9.81189 130.443 9.8 129.61V112.629C9.8 112.029 9.81333 111.451 9.84 110.894C9.86667 110.337 9.89333 109.854 9.92 109.445C9.46667 109.472 8.97333 109.5 8.44 109.527C7.90667 109.554 7.42667 109.582 7 109.609V107.364C8.57333 107.337 10.1733 107.316 11.8 107.303C13.4267 107.29 15.08 107.283 16.76 107.283C18.923 107.231 21.0794 107.542 23.14 108.201C24.7319 108.706 26.138 109.672 27.18 110.977C28.1648 112.333 28.6777 113.975 28.64 115.65C28.6568 116.77 28.467 117.884 28.08 118.936C27.643 120.123 26.946 121.197 26.04 122.079C24.928 123.138 23.5965 123.939 22.14 124.426C20.1472 125.08 18.0564 125.384 15.96 125.326C15.6609 125.355 15.3605 125.369 15.06 125.367C14.7267 125.367 14.3867 125.353 14.04 125.326V130.469C14.04 131.202 14.0333 131.862 14.02 132.449C14.0152 132.92 13.9818 133.39 13.92 133.857C14.2933 133.83 14.6933 133.802 15.12 133.775C15.5467 133.748 15.9667 133.727 16.38 133.714C16.7933 133.701 17.1733 133.68 17.52 133.653V135.937H7V134.141ZM14.04 123.16C14.4933 123.215 14.8867 123.248 15.22 123.26C15.5533 123.272 15.9467 123.279 16.4 123.28C17.7688 123.308 19.125 123.014 20.36 122.423C21.48 121.876 22.4126 121.01 23.04 119.933C23.704 118.751 24.0357 117.411 24 116.055C24.0337 114.932 23.8363 113.813 23.42 112.769C23.0806 111.946 22.5284 111.227 21.82 110.687C21.1199 110.174 20.3243 109.806 19.48 109.605C18.5634 109.383 17.6231 109.273 16.68 109.278C16.0536 109.226 15.4293 109.4 14.92 109.768C14.5201 110.145 14.2653 110.651 14.2 111.197C14.0812 111.994 14.0277 112.799 14.04 113.605V123.16ZM35.48 135.937V134.137C36.1572 134.148 36.8212 133.949 37.38 133.566C37.7969 133.182 38.0599 132.66 38.12 132.096C38.2384 131.271 38.2919 130.439 38.28 129.606V112.629C38.28 112.029 38.2933 111.451 38.32 110.894C38.3467 110.337 38.3733 109.854 38.4 109.445C37.9467 109.472 37.4533 109.5 36.92 109.527C36.3867 109.554 35.9067 109.582 35.48 109.609V107.364C37.1067 107.337 38.7467 107.316 40.4 107.303C42.0533 107.29 43.72 107.296 45.4 107.323C47.5015 107.263 49.5979 107.559 51.6 108.201C53.0588 108.666 54.3375 109.571 55.26 110.793C56.1115 112.07 56.5256 113.588 56.44 115.12C56.4615 116.235 56.2432 117.342 55.8 118.365C55.2976 119.503 54.5128 120.494 53.52 121.243C52.2107 122.196 50.709 122.851 49.12 123.162C49.6817 123.515 50.1705 123.972 50.56 124.509C50.9867 125.08 51.4267 125.72 51.88 126.428L54.32 130.265C54.8267 131.082 55.2933 131.776 55.72 132.347C56.1061 132.882 56.5958 133.333 57.16 133.674C57.7462 134 58.4095 134.162 59.08 134.143V135.943H53.52C52.8508 135.371 52.2532 134.72 51.74 134.004C51.2467 133.306 50.72 132.521 50.16 131.65L47.4 127.079C47.0533 126.535 46.6867 125.95 46.3 125.324C45.9486 124.742 45.5253 124.208 45.04 123.732H42.52V130.467C42.52 131.2 42.5133 131.86 42.5 132.447C42.4952 132.918 42.4618 133.388 42.4 133.855C42.72 133.828 43.06 133.807 43.42 133.794C43.78 133.781 44.14 133.76 44.5 133.733C44.86 133.706 45.1733 133.692 45.44 133.692V135.937H35.48ZM44.84 121.732C46.1278 121.74 47.4048 121.498 48.6 121.018C49.6034 120.601 50.4452 119.87 51 118.936C51.6039 117.816 51.8942 116.554 51.84 115.283C51.8675 114.322 51.7044 113.364 51.36 112.466C51.0687 111.743 50.6012 111.105 50 110.609C49.3837 110.118 48.6666 109.77 47.9 109.589C47.0426 109.38 46.1626 109.277 45.28 109.283C44.6221 109.227 43.965 109.4 43.42 109.773C43.0093 110.145 42.7465 110.652 42.68 111.202C42.5612 111.999 42.5077 112.804 42.52 113.61V121.61C42.92 121.637 43.3 121.671 43.66 121.71C44.0519 121.752 44.4468 121.759 44.84 121.732ZM79 136.59C76.7625 136.651 74.5401 136.205 72.5 135.284C70.7856 134.482 69.2849 133.286 68.12 131.794C67.0045 130.347 66.1639 128.707 65.64 126.957C65.114 125.237 64.8444 123.449 64.84 121.65C64.8495 119.882 65.1398 118.127 65.7 116.45C66.2726 114.696 67.153 113.058 68.3 111.613C69.4793 110.128 70.9669 108.916 72.66 108.062C74.5691 107.127 76.6749 106.665 78.8 106.715C80.99 106.657 83.1626 107.119 85.14 108.062C86.85 108.908 88.3471 110.129 89.52 111.634C90.6505 113.087 91.5232 114.723 92.1 116.471C92.6618 118.142 92.9521 119.892 92.96 121.655C92.9487 123.411 92.6585 125.154 92.1 126.819C91.5247 128.578 90.6447 130.223 89.5 131.677C88.3292 133.167 86.8483 134.383 85.16 135.243C83.2453 136.182 81.1319 136.644 79 136.59ZM79.2 134.467C80.6136 134.503 82.0082 134.135 83.22 133.406C84.361 132.691 85.3197 131.719 86.02 130.569C86.765 129.357 87.3119 128.034 87.64 126.65C87.9827 125.254 88.1573 123.822 88.16 122.384C88.1651 120.686 87.9637 118.993 87.56 117.343C87.1915 115.799 86.577 114.324 85.74 112.975C84.9805 111.737 83.9474 110.69 82.72 109.914C81.4685 109.151 80.0253 108.762 78.56 108.791C77.135 108.757 75.7309 109.139 74.52 109.891C73.3773 110.622 72.4191 111.607 71.72 112.769C70.986 113.986 70.4399 115.308 70.1 116.688C69.7427 118.096 69.5613 119.542 69.56 120.994C69.5721 122.507 69.76 124.014 70.12 125.484C70.4799 127.028 71.0591 128.513 71.84 129.893C72.5706 131.206 73.5895 132.337 74.82 133.199C76.1124 134.067 77.6436 134.511 79.2 134.467Z" fill="#432B09"></path><path d="M194 141.59H0V144.59H194V141.59Z" fill="#432B09"></path></svg> 